<svg id="visual" viewBox="0 0 960 540" width="960" height="540" xmlns="http://www.w3.org/2000/svg" xmlns:xlink="http://www.w3.org/1999/xlink" version="1.1"><path d="M0 179L32 180.8C64 182.7 128 186.3 192 175.5C256 164.7 320 139.3 384 123.2C448 107 512 100 576 107.3C640 114.7 704 136.3 768 148.8C832 161.3 896 164.7 928 166.3L960 168L960 0L928 0C896 0 832 0 768 0C704 0 640 0 576 0C512 0 448 0 384 0C320 0 256 0 192 0C128 0 64 0 32 0L0 0Z" fill="#4b03ba"></path><path d="M0 293L32 284.8C64 276.7 128 260.3 192 245.8C256 231.3 320 218.7 384 201.5C448 184.3 512 162.7 576 164.5C640 166.3 704 191.7 768 213.3C832 235 896 253 928 262L960 271L960 166L928 164.3C896 162.7 832 159.3 768 146.8C704 134.3 640 112.7 576 105.3C512 98 448 105 384 121.2C320 137.3 256 162.7 192 173.5C128 184.3 64 180.7 32 178.8L0 177Z" fill="#5602d5"></path><path d="M0 330L32 323.8C64 317.7 128 305.3 192 296.3C256 287.3 320 281.7 384 265.3C448 249 512 222 576 222C640 222 704 249 768 271.5C832 294 896 312 928 321L960 330L960 269L928 260C896 251 832 233 768 211.3C704 189.7 640 164.3 576 162.5C512 160.7 448 182.3 384 199.5C320 216.7 256 229.3 192 243.8C128 258.3 64 274.7 32 282.8L0 291Z" fill="#6101f1"></path><path d="M0 368L32 366.2C64 364.3 128 360.7 192 352.7C256 344.7 320 332.3 384 317.2C448 302 512 284 576 282.2C640 280.3 704 294.7 768 316.2C832 337.7 896 366.3 928 380.7L960 395L960 328L928 319C896 310 832 292 768 269.5C704 247 640 220 576 220C512 220 448 247 384 263.3C320 279.7 256 285.3 192 294.3C128 303.3 64 315.7 32 321.8L0 328Z" fill="#7425ff"></path><path d="M0 471L32 458.3C64 445.7 128 420.3 192 401.3C256 382.3 320 369.7 384 362.5C448 355.3 512 353.7 576 361.8C640 370 704 388 768 402.3C832 416.7 896 427.3 928 432.7L960 438L960 393L928 378.7C896 364.3 832 335.7 768 314.2C704 292.7 640 278.3 576 280.2C512 282 448 300 384 315.2C320 330.3 256 342.7 192 350.7C128 358.7 64 362.3 32 364.2L0 366Z" fill="#8c4aff"></path><path d="M0 541L32 541C64 541 128 541 192 541C256 541 320 541 384 541C448 541 512 541 576 541C640 541 704 541 768 541C832 541 896 541 928 541L960 541L960 436L928 430.7C896 425.3 832 414.7 768 400.3C704 386 640 368 576 359.8C512 351.7 448 353.3 384 360.5C320 367.7 256 380.3 192 399.3C128 418.3 64 443.7 32 456.3L0 469Z" fill="#a067ff"></path></svg>