<svg id="visual" viewBox="0 0 960 540" width="960" height="540" xmlns="http://www.w3.org/2000/svg" xmlns:xlink="http://www.w3.org/1999/xlink" version="1.1"><rect x="0" y="0" width="960" height="540" fill="#001220"></rect><path d="M0 277L20 279.7C40 282.3 80 287.7 120 290.7C160 293.7 200 294.3 240 300.3C280 306.3 320 317.7 360 317.2C400 316.7 440 304.3 480 307.8C520 311.3 560 330.7 600 334.5C640 338.3 680 326.7 720 321C760 315.3 800 315.7 840 317.8C880 320 920 324 940 326L960 328L960 541L940 541C920 541 880 541 840 541C800 541 760 541 720 541C680 541 640 541 600 541C560 541 520 541 480 541C440 541 400 541 360 541C320 541 280 541 240 541C200 541 160 541 120 541C80 541 40 541 20 541L0 541Z" fill="#6600ff"></path><path d="M0 383L20 380.2C40 377.3 80 371.7 120 367.3C160 363 200 360 240 358.8C280 357.7 320 358.3 360 362.3C400 366.3 440 373.7 480 374.7C520 375.7 560 370.3 600 363.3C640 356.3 680 347.7 720 346.3C760 345 800 351 840 361C880 371 920 385 940 392L960 399L960 541L940 541C920 541 880 541 840 541C800 541 760 541 720 541C680 541 640 541 600 541C560 541 520 541 480 541C440 541 400 541 360 541C320 541 280 541 240 541C200 541 160 541 120 541C80 541 40 541 20 541L0 541Z" fill="#672bfd"></path><path d="M0 400L20 405.7C40 411.3 80 422.7 120 421.2C160 419.7 200 405.3 240 403.3C280 401.3 320 411.7 360 417.3C400 423 440 424 480 418.5C520 413 560 401 600 396.3C640 391.7 680 394.3 720 398C760 401.7 800 406.3 840 403C880 399.7 920 388.3 940 382.7L960 377L960 541L940 541C920 541 880 541 840 541C800 541 760 541 720 541C680 541 640 541 600 541C560 541 520 541 480 541C440 541 400 541 360 541C320 541 280 541 240 541C200 541 160 541 120 541C80 541 40 541 20 541L0 541Z" fill="#6940fa"></path><path d="M0 448L20 441.8C40 435.7 80 423.3 120 421.3C160 419.3 200 427.7 240 431.7C280 435.7 320 435.3 360 431.5C400 427.7 440 420.3 480 418C520 415.7 560 418.3 600 427C640 435.7 680 450.3 720 453.7C760 457 800 449 840 440.2C880 431.3 920 421.7 940 416.8L960 412L960 541L940 541C920 541 880 541 840 541C800 541 760 541 720 541C680 541 640 541 600 541C560 541 520 541 480 541C440 541 400 541 360 541C320 541 280 541 240 541C200 541 160 541 120 541C80 541 40 541 20 541L0 541Z" fill="#6c50f6"></path><path d="M0 500L20 500.3C40 500.7 80 501.3 120 502.7C160 504 200 506 240 507C280 508 320 508 360 505.2C400 502.3 440 496.7 480 490C520 483.3 560 475.7 600 472.8C640 470 680 472 720 475.7C760 479.3 800 484.7 840 487.5C880 490.3 920 490.7 940 490.8L960 491L960 541L940 541C920 541 880 541 840 541C800 541 760 541 720 541C680 541 640 541 600 541C560 541 520 541 480 541C440 541 400 541 360 541C320 541 280 541 240 541C200 541 160 541 120 541C80 541 40 541 20 541L0 541Z" fill="#715df2"></path></svg>